<svg xmlns="http://www.w3.org/2000/svg" width="256" height="256" viewBox="0 0 100 100"><rect width="100" height="100" rx="50" fill="#003366"></rect><path fill="#fff" d="M71.08 23.15Q73.18 23.15 74.45 24.46Q75.72 25.77 75.72 27.95L75.72 27.95L75.72 72.35Q75.72 74.45 74.53 75.65Q73.33 76.85 71.38 76.85L71.38 76.85Q69.43 76.85 68.30 75.65Q67.18 74.45 67.18 72.35L67.18 72.35L67.18 41.45L54.43 65.60Q53.53 67.25 52.48 68.04Q51.43 68.82 50 68.82L50 68.82Q48.58 68.82 47.53 68.07Q46.48 67.32 45.58 65.60L45.58 65.60L32.75 41.82L32.75 72.35Q32.75 74.37 31.59 75.61Q30.43 76.85 28.48 76.85L28.48 76.85Q26.53 76.85 25.40 75.65Q24.28 74.45 24.28 72.35L24.28 72.35L24.28 27.95Q24.28 25.77 25.51 24.46Q26.75 23.15 28.85 23.15L28.85 23.15Q31.78 23.15 33.43 26.37L33.43 26.37L50.08 58.10L66.65 26.37Q68.30 23.15 71.08 23.15L71.08 23.15Z"></path></svg>